<?xml version="1.0" encoding="utf-8"?>
<!-- Generator: Adobe Illustrator 20.1.0, SVG Export Plug-In . SVG Version: 6.00 Build 0)  -->
<svg version="1.1" id="レイヤー_1" xmlns="http://www.w3.org/2000/svg" xmlns:xlink="http://www.w3.org/1999/xlink" x="0px"
	 y="0px" width="400px" height="400px" viewBox="0 0 400 400" style="enable-background:new 0 0 400 400;" xml:space="preserve">
<style type="text/css">
	.st0{fill:#FFFFFF;}
	.st1{fill:none;}
	.st2{fill:#325094;}
</style>
<title>Twitter_Logo_White-on-Blue</title>
<g id="Logo_FIXED">
	<path class="st0" d="M153.6,301.6c94.3,0,145.9-78.2,145.9-145.9c0-2.2,0-4.4-0.1-6.6c10-7.3,18.7-16.3,25.6-26.5
		c-9.4,4.1-19.3,6.9-29.5,8.1c10.7-6.4,18.7-16.5,22.5-28.4c-10.1,6-21.1,10.2-32.6,12.4c-19.4-20.7-51.9-21.7-72.6-2.2
		c-13.3,12.5-19,31.2-14.8,49c-41.2-2.1-79.7-21.5-105.7-53.6c-13.6,23.4-6.7,53.4,15.9,68.5c-8.2-0.2-16.1-2.4-23.3-6.4
		c0,0.2,0,0.4,0,0.6c0,24.4,17.2,45.4,41.2,50.3c-7.6,2.1-15.5,2.4-23.2,0.9c6.7,20.9,26,35.2,47.9,35.6c-18.2,14.3-40.6,22-63.7,22
		c-4.1,0-8.2-0.3-12.2-0.7C98.5,293.6,125.7,301.6,153.6,301.6"/>
	<rect y="0" class="st1" width="400" height="400"/>
</g>
<g>
	<path id="Blue_1_" class="st2" d="M376.6,399.6c12.1,0,22-9.8,22-22V23.5c0-12.1-9.8-22-22-22H22.5c-12.1,0-22,9.8-22,22v354.1
		c0,12.1,9.8,22,22,22H376.6z"/>
	<path id="f" class="st0" d="M275.2,399.6V245.4h51.7l7.7-60.1h-59.5V147c0-17.4,4.8-29.2,29.8-29.2l31.8,0V64
		c-5.5-0.7-24.4-2.4-46.3-2.4c-45.9,0-77.3,28-77.3,79.4v44.3h-51.9v60.1h51.9v154.1H275.2z"/>
</g>
</svg>
