<?xml version="1.0" encoding="utf-8"?>
<!-- Generator: Adobe Illustrator 20.1.0, SVG Export Plug-In . SVG Version: 6.00 Build 0)  -->
<svg version="1.1" id="レイヤー_1" xmlns="http://www.w3.org/2000/svg" xmlns:xlink="http://www.w3.org/1999/xlink" x="0px"
	 y="0px" width="400px" height="400px" viewBox="0 0 400 400" style="enable-background:new 0 0 400 400;" xml:space="preserve">
<style type="text/css">
	.st0{fill:#FFFFFF;}
</style>
<title>Twitter_Logo_White-on-Blue</title>
<g>
	<path class="st0" d="M42.5,205c-2.1-54.5,45.7-104.9,100.1-105.5c27.9-2.4,54.8,8.4,75.8,26c-8.7,9.4-17.3,18.9-26.8,27.7
		c-18.6-11.3-40.8-19.8-62.4-12.2c-34.9,9.9-56,51.1-43.1,85.2c10.7,35.6,54,55.2,88.1,40.2c17.7-6.2,29.2-22.5,34.2-40
		c-20.2-0.5-40.3-0.2-60.6-0.8c0-12-0.2-23.9,0-35.9c33.6,0,67.3-0.2,101.1,0.2c2.1,29.4-2.3,60.9-21.5,84.5
		c-26.2,33.6-74.6,43.5-113.8,30.3C72,291.1,41.8,249.1,42.5,205z"/>
	<path class="st0" d="M314.6,159.6c10,0,19.9,0,30,0c0,10,0.2,20.1,0.2,30.1c10,0.2,20.1,0.2,30.1,0.2c0,10,0,20.1,0,30.1
		c-10,0-20.1,0.2-30.1,0.2c-0.2,10-0.2,20.1-0.2,30.1c-10,0-20.1,0-30.1,0c-0.2-10-0.2-20.1-0.2-30.1c-10-0.2-20.1-0.2-30.1-0.2
		c0-10,0-20.1,0-30.1c10,0,20.1-0.2,30.1-0.2C314.5,179.7,314.5,169.7,314.6,159.6z"/>
</g>
</svg>
