<svg width="1130" height="128" viewBox="0 0 1130 128" fill="none" xmlns="http://www.w3.org/2000/svg">
<path d="M54.6 1.79999H24.72L0.6 126H30.48L54.6 1.79999ZM161.78 1.79999L148.1 72.72L115.34 1.79999H91.9395L67.8195 126H95.8995L109.4 55.98L141.98 126H165.74L189.86 1.79999H161.78ZM225.471 1.79999L201.351 126H231.231L240.771 77.04H283.971L288.831 52.2H245.631L250.491 26.64H299.091L303.951 1.79999H225.471ZM362.163 1.79999H332.283L308.163 126H386.643L391.503 101.16H342.903L362.163 1.79999ZM505.378 1.79999L490.978 75.96C487.378 94.14 480.358 102.96 466.678 102.96C452.998 102.96 449.218 94.14 452.818 75.96L467.218 1.79999H437.338L422.938 75.96C416.098 110.7 435.538 127.8 461.818 127.8C492.598 127.8 513.658 113.76 521.038 75.78L535.438 1.79999H505.378ZM570.869 1.79999L546.749 126H625.229L630.089 101.16H581.489L586.709 74.16H629.909L634.769 49.32H591.569L595.889 26.64H644.489L649.349 1.79999H570.869ZM748.576 1.79999L734.896 72.72L702.136 1.79999H678.736L654.616 126H682.696L696.196 55.98L728.776 126H752.536L776.656 1.79999H748.576ZM896.868 40.14C897.588 15.84 883.728 -8.58307e-06 858.348 -8.58307e-06C828.648 -8.58307e-06 806.868 16.02 799.488 54.18L795.708 73.62C788.868 109.08 807.408 127.8 834.228 127.8C862.848 127.8 879.588 115.2 887.688 87.66H859.248C855.468 97.56 849.528 102.96 838.908 102.96C826.308 102.96 821.808 93.06 825.588 73.62L829.368 54.18C833.328 33.84 841.788 24.84 854.208 24.84C864.828 24.84 868.788 32.22 868.428 40.14H896.868ZM934.373 1.79999L910.253 126H988.733L993.593 101.16H944.993L950.213 74.16H993.413L998.273 49.32H955.073L959.393 26.64H1007.99L1012.85 1.79999H934.373ZM1116.94 126L1102.18 74.16C1119.82 67.32 1129.36 54.54 1129.36 36C1129.36 15.12 1114.06 1.79999 1089.04 1.79999H1042.24L1018.12 126H1048L1057.18 79.02H1072.66L1084.18 126H1116.94ZM1062.04 54.18L1067.26 26.64H1080.58C1091.38 26.64 1098.94 28.62 1098.94 37.8C1098.94 52.2 1089.22 54.18 1075.36 54.18H1062.04Z" fill="#0B66EE"/>
</svg>
